<svg width="51" height="51" viewBox="0 0 51 51" fill="none" xmlns="http://www.w3.org/2000/svg">
<circle cx="25.5" cy="25.5" r="25" fill="#F9FBFF" stroke="#E1E3E9"/>
<path d="M22.9828 19.6797C22.9828 20.1585 22.9828 22.2956 22.9828 22.2956H21.0663V25.4943H22.9828V34.9999H26.9197V25.4946H29.5616C29.5616 25.4946 29.809 23.9608 29.9289 22.2838C29.5851 22.2838 26.9346 22.2838 26.9346 22.2838C26.9346 22.2838 26.9346 20.4229 26.9346 20.0967C26.9346 19.7698 27.3638 19.3301 27.7881 19.3301C28.2116 19.3301 29.1053 19.3301 29.9331 19.3301C29.9331 18.8946 29.9331 17.3898 29.9331 16C28.828 16 27.5708 16 27.0166 16C22.8855 15.9998 22.9828 19.2017 22.9828 19.6797Z" fill="#99A0AD"/>
</svg>
