<svg width="51" height="51" viewBox="0 0 51 51" fill="none" xmlns="http://www.w3.org/2000/svg">
<circle cx="25.5" cy="25.5" r="25" fill="#F9FBFF" stroke="#E1E3E9"/>
<g clip-path="url(#clip0_1_475)">
<path d="M28.0946 18.8993C28.7365 18.9901 29.3652 19.1513 29.9863 19.3422C31.0707 19.6761 32.0939 20.14 33.0562 20.7418C33.1232 20.7833 33.2126 20.8097 33.2915 20.8097C34.4218 20.8144 35.5516 20.8127 36.681 20.8137C36.772 20.8137 36.8626 20.8232 36.9534 20.8284C36.9534 20.8505 36.9566 20.8599 36.9529 20.865C36.9002 20.9462 36.8467 21.0263 36.7937 21.1072C36.4104 21.6953 36.0827 22.3104 35.8893 22.9903C35.8683 23.0634 35.8639 23.1245 35.9133 23.1961C36.9195 24.641 37.2406 26.2273 36.8201 27.9373C36.4514 29.437 35.5918 30.6063 34.2855 31.4342C33.3519 32.0262 32.3205 32.3081 31.2186 32.3141C30.7557 32.3169 30.2951 32.2546 29.8428 32.1375C28.741 31.8517 27.7964 31.3024 27.0179 30.4705C26.9153 30.3613 26.8187 30.2472 26.7092 30.1237C26.2976 30.7372 25.8925 31.3406 25.4776 31.9599C25.0644 31.3425 24.6649 30.7449 24.2663 30.1496C24.2388 30.1641 24.2309 30.1657 24.2255 30.1709C24.2164 30.1783 24.2087 30.1874 24.2015 30.1961C23.2599 31.308 22.0754 31.9896 20.6324 32.2175C19.8297 32.3447 19.0347 32.299 18.2551 32.0841C17.1502 31.7805 16.2112 31.1976 15.4526 30.3375C14.7113 29.4965 14.2502 28.5202 14.077 27.4101C13.8789 26.3741 14.1202 25.3751 14.1804 25.1327C14.3549 24.428 14.6592 23.7809 15.0769 23.1859C15.1063 23.1436 15.1166 23.069 15.1026 23.0186C14.9322 22.3939 14.6387 21.8257 14.295 21.2815C14.2077 21.1432 14.1032 21.0151 14.0066 20.8823C14.0066 20.8671 14.0066 20.8515 14.0066 20.8361C14.0259 20.8384 14.0451 20.8421 14.064 20.8421C15.2204 20.8426 16.3767 20.8431 17.5331 20.8407C17.5835 20.8407 17.6395 20.82 17.6825 20.7924C18.495 20.2711 19.3607 19.8581 20.2703 19.5366C20.9262 19.3051 21.5959 19.1245 22.2789 18.9922C22.9402 18.8643 23.605 18.7742 24.2768 18.7299C25.9147 18.6039 27.2238 18.7773 28.0946 18.8993ZM26.6448 26.537C26.6448 29.0765 28.7053 31.1511 31.2357 31.1413C33.7756 31.1322 35.8268 29.1159 35.8249 26.5484C35.823 23.9025 33.6767 21.9134 31.1372 21.965C28.6301 22.017 26.6677 24.0378 26.6448 26.537ZM19.7585 21.9475C17.2883 21.926 15.1346 23.9877 15.1777 26.6137C15.2179 29.0627 17.2363 31.1388 19.8099 31.1166C22.3263 31.0951 24.3489 29.0403 24.3536 26.5519C24.3576 23.9954 22.3102 21.9475 19.7585 21.9475ZM19.9863 20.7495C21.3817 20.8347 22.6075 21.321 23.6431 22.2628C24.6765 23.2027 25.2821 24.3752 25.5021 25.7541C25.7285 24.3916 26.3181 23.23 27.3323 22.2994C28.348 21.3679 29.5574 20.879 30.93 20.7756C29.3012 20.0516 27.5838 19.744 25.816 19.71C23.8069 19.6705 21.8526 19.9666 19.9863 20.7495Z" fill="#99A0AD"/>
<path d="M31.2266 23.6398C32.7982 23.6373 34.0711 24.9034 34.0711 26.4733C34.0711 28.0494 32.8199 29.2677 31.3437 29.3239C29.6951 29.3871 28.376 28.0736 28.3765 26.4803C28.3779 24.8689 29.7063 23.6132 31.2266 23.6398ZM33.0803 26.4803C33.0796 25.456 32.2514 24.6234 31.2341 24.6234C30.205 24.6234 29.3673 25.4515 29.3631 26.4729C29.3593 27.4898 30.2013 28.3359 31.2208 28.3387C32.2419 28.3427 33.0808 27.5029 33.0803 26.4803Z" fill="#99A0AD"/>
<path d="M19.698 23.6398C21.2687 23.6382 22.5434 24.9067 22.5395 26.4764C22.535 28.0652 21.2827 29.2569 19.8324 29.323C18.1773 29.3986 16.8419 28.0793 16.8449 26.4773C16.8482 24.8544 18.1857 23.6128 19.698 23.6398ZM21.5496 26.4741C21.5466 25.4434 20.7131 24.6218 19.6726 24.6236C18.669 24.6255 17.828 25.4725 17.8303 26.4799C17.8329 27.4989 18.6729 28.3369 19.6952 28.3397C20.7112 28.342 21.5522 27.4959 21.5496 26.4741Z" fill="#99A0AD"/>
<path d="M31.2278 25.5374C31.7486 25.5369 32.1757 25.9641 32.1708 26.4819C32.1656 27.0009 31.7458 27.4214 31.2336 27.4216C30.7063 27.4216 30.2823 27.0049 30.2834 26.4885C30.2844 25.9527 30.6962 25.5378 31.2278 25.5374Z" fill="#99A0AD"/>
<path d="M19.693 25.5288C20.2217 25.5283 20.6467 25.9507 20.6488 26.4778C20.6509 27.0005 20.222 27.4296 19.6958 27.4308C19.157 27.432 18.7414 27.0157 18.7419 26.4741C18.7419 25.9423 19.1565 25.5295 19.693 25.5288Z" fill="#99A0AD"/>
</g>
<defs>
<clipPath id="clip0_1_475">
<rect width="23" height="23" fill="white" transform="translate(14 14)"/>
</clipPath>
</defs>
</svg>
