<svg width="51" height="51" viewBox="0 0 51 51" fill="none" xmlns="http://www.w3.org/2000/svg">
<circle cx="25.5" cy="25.5" r="25" fill="#F9FBFF" stroke="#E1E3E9"/>
<g clip-path="url(#clip0_1_464)">
<path d="M30.2045 15H20.7951C17.5997 15 15 17.5998 15 20.7952V30.2047C15 33.4002 17.5997 35.9999 20.7951 35.9999H30.2045C33.4002 35.9999 35.9999 33.4001 35.9999 30.2047V20.7952C36 17.5998 33.4002 15 30.2045 15ZM34.1368 30.2047C34.1368 32.3728 32.3728 34.1367 30.2047 34.1367H20.7951C18.627 34.1368 16.8632 32.3728 16.8632 30.2047V20.7952C16.8632 18.6272 18.627 16.8632 20.7951 16.8632H30.2045C32.3727 16.8632 34.1367 18.6272 34.1367 20.7952V30.2047H34.1368Z" fill="#99A0AD"/>
<path d="M25.5002 20.0889C22.5164 20.0889 20.089 22.5163 20.089 25.5C20.089 28.4836 22.5164 30.9109 25.5002 30.9109C28.4839 30.9109 30.9113 28.4836 30.9113 25.5C30.9113 22.5163 28.4839 20.0889 25.5002 20.0889ZM25.5002 29.0476C23.5439 29.0476 21.9522 27.4561 21.9522 25.4999C21.9522 23.5435 23.5438 21.952 25.5002 21.952C27.4565 21.952 29.0481 23.5435 29.0481 25.4999C29.0481 27.4561 27.4564 29.0476 25.5002 29.0476Z" fill="#99A0AD"/>
<path d="M31.1381 18.5093C30.7791 18.5093 30.4265 18.6546 30.1729 18.9092C29.9182 19.1626 29.7717 19.5154 29.7717 19.8756C29.7717 20.2347 29.9183 20.5874 30.1729 20.842C30.4263 21.0954 30.7791 21.242 31.1381 21.242C31.4983 21.242 31.8498 21.0954 32.1045 20.842C32.3591 20.5874 32.5044 20.2346 32.5044 19.8756C32.5044 19.5154 32.3591 19.1626 32.1045 18.9092C31.8511 18.6546 31.4983 18.5093 31.1381 18.5093Z" fill="#99A0AD"/>
</g>
<defs>
<clipPath id="clip0_1_464">
<rect width="21" height="21" fill="white" transform="translate(15 15)"/>
</clipPath>
</defs>
</svg>
