<svg width="51" height="51" viewBox="0 0 51 51" fill="none" xmlns="http://www.w3.org/2000/svg">
<circle cx="25.5" cy="25.5" r="25" fill="#F9FBFF" stroke="#E1E3E9"/>
<path d="M31.4309 18.2161H18.5691C16.0457 18.2161 14 20.2617 14 22.7852V29.2147C14 31.7382 16.0457 33.7838 18.5691 33.7838H31.4309C33.9543 33.7838 36 31.7382 36 29.2147V22.7852C36 20.2617 33.9543 18.2161 31.4309 18.2161ZM28.3408 26.3128L22.325 29.182C22.1647 29.2584 21.9795 29.1415 21.9795 28.964V23.0462C21.9795 22.8661 22.1695 22.7494 22.3302 22.8308L28.346 25.8793C28.5249 25.97 28.5218 26.2265 28.3408 26.3128Z" fill="#99A0AD"/>
</svg>
